<svg width="230" height="70" viewBox="0 0 230 70" fill="none" xmlns="http://www.w3.org/2000/svg">
<g clip-path="url(#clip0_162_39154)">
<path d="M230 60.5092C230 65.7269 225.449 69.9584 219.835 69.9584H10.1672C4.55296 69.9588 0 65.7273 0 60.5092V9.48985C0 4.27254 4.55296 0.0414429 10.1672 0.0414429H219.835C225.448 0.0414429 230 4.27254 230 9.48985V60.5092H230Z" fill="black"/>
<mask id="mask0_162_39154" style="mask-type:luminance" maskUnits="userSpaceOnUse" x="17" y="14" width="44" height="47">
<path d="M49.8434 30.8169L39.4726 25.2528C39.4726 25.2528 20.5791 15.1144 19.4683 14.5185C18.3576 13.9226 17.251 14.2837 17.251 15.529V59.2612C17.251 60.1948 18.0419 60.5972 19.0069 60.0798C19.9715 59.5617 39.4726 49.0982 39.4726 49.0982L49.843 43.5344C49.843 43.5344 58.6422 38.8136 59.8118 38.1863C60.9815 37.5583 60.869 36.6974 59.882 36.2035C58.8954 35.7091 49.8434 30.8169 49.8434 30.8169Z" fill="white"/>
</mask>
<g mask="url(#mask0_162_39154)">
<path d="M17.251 13.5018V60.8495L42.9427 37.1759L17.251 13.5018Z" fill="url(#paint0_linear_162_39154)"/>
</g>
<mask id="mask1_162_39154" style="mask-type:luminance" maskUnits="userSpaceOnUse" x="17" y="14" width="44" height="47">
<path d="M49.8434 30.8169L39.4726 25.2528C39.4726 25.2528 20.5791 15.1144 19.4683 14.5185C18.3576 13.9226 17.251 14.2837 17.251 15.529V59.2612C17.251 60.1948 18.0419 60.5972 19.0069 60.0798C19.9715 59.5617 39.4726 49.0982 39.4726 49.0982L49.843 43.5344C49.843 43.5344 58.6422 38.8136 59.8118 38.1863C60.9815 37.5583 60.869 36.6974 59.882 36.2035C58.8954 35.7091 49.8434 30.8169 49.8434 30.8169Z" fill="white"/>
</mask>
<g mask="url(#mask1_162_39154)">
<path d="M49.843 30.8169L39.4721 25.2527L17.251 13.3296V13.5018L42.9427 37.1758L49.843 30.8169Z" fill="url(#paint1_linear_162_39154)"/>
</g>
<mask id="mask2_162_39154" style="mask-type:luminance" maskUnits="userSpaceOnUse" x="17" y="14" width="44" height="47">
<path d="M49.8434 30.8169L39.4726 25.2528C39.4726 25.2528 20.5791 15.1144 19.4683 14.5185C18.3576 13.9226 17.251 14.2837 17.251 15.529V59.2612C17.251 60.1948 18.0419 60.5972 19.0069 60.0798C19.9715 59.5617 39.4726 49.0982 39.4726 49.0982L49.843 43.5344C49.843 43.5344 58.6422 38.8136 59.8118 38.1863C60.9815 37.5583 60.869 36.6974 59.882 36.2035C58.8954 35.7091 49.8434 30.8169 49.8434 30.8169Z" fill="white"/>
</mask>
<g mask="url(#mask2_162_39154)">
<path d="M17.251 60.8493V61.0215L39.4721 49.098L49.8425 43.5338L42.9427 37.1757L17.251 60.8493Z" fill="url(#paint2_linear_162_39154)"/>
</g>
<mask id="mask3_162_39154" style="mask-type:luminance" maskUnits="userSpaceOnUse" x="17" y="14" width="44" height="47">
<path d="M49.8434 30.8169L39.4726 25.2528C39.4726 25.2528 20.5791 15.1144 19.4683 14.5185C18.3576 13.9226 17.251 14.2837 17.251 15.529V59.2612C17.251 60.1948 18.0419 60.5972 19.0069 60.0798C19.9715 59.5617 39.4726 49.0982 39.4726 49.0982L49.843 43.5344C49.843 43.5344 58.6422 38.8136 59.8118 38.1863C60.9815 37.5583 60.869 36.6974 59.882 36.2035C58.8954 35.7091 49.8434 30.8169 49.8434 30.8169Z" fill="white"/>
</mask>
<g mask="url(#mask3_162_39154)">
<path d="M49.8436 30.8168L42.9434 37.1757L49.8432 43.5339L61.6952 37.1753L49.8436 30.8168Z" fill="url(#paint3_linear_162_39154)"/>
</g>
<path d="M178.997 46.4314C178.032 46.4314 177.151 46.2659 176.354 45.9354C175.557 45.6044 174.887 45.0954 174.346 44.4093H174.184C174.292 45.2133 174.346 45.9755 174.346 46.6955V52.3616H172.103V32.4105H173.928L174.238 34.2952H174.346C174.923 33.5409 175.595 32.9972 176.361 32.6621C177.127 32.3269 178.006 32.1593 178.996 32.1593C180.961 32.1593 182.478 32.7837 183.546 34.0315C184.614 35.2793 185.148 37.0302 185.148 39.2826C185.148 41.5442 184.605 43.3006 183.52 44.5538C182.434 45.8058 180.926 46.4314 178.997 46.4314ZM178.672 33.9308C177.158 33.9308 176.063 34.3206 175.387 35.0992C174.711 35.8781 174.364 37.118 174.346 38.8184V39.2827C174.346 41.2179 174.693 42.6019 175.387 43.4356C176.082 44.2693 177.195 44.6851 178.726 44.6851C180.007 44.6851 181.01 44.2041 181.735 43.2409C182.46 42.2781 182.823 40.9504 182.823 39.2576C182.823 37.5413 182.46 36.2233 181.735 35.3064C181.01 34.3888 179.988 33.9308 178.672 33.9308ZM190.344 46.1798H188.101V26.6311H190.344V46.1798ZM203.247 46.1798L202.8 44.22H202.693C201.953 45.0833 201.217 45.6679 200.482 45.9726C199.748 46.2789 198.83 46.4314 197.731 46.4314C196.262 46.4314 195.111 46.0796 194.277 45.3762C193.443 44.673 193.026 43.6725 193.026 42.3737C193.026 39.5935 195.419 38.1359 200.205 38.0014L202.72 37.9257V37.0716C202.72 35.9909 202.47 35.1928 201.969 34.6784C201.47 34.1626 200.668 33.9053 199.57 33.9053C198.335 33.9053 196.938 34.2571 195.379 34.9604L194.689 33.3649C195.42 32.9964 196.219 32.7076 197.09 32.4982C197.959 32.2889 198.831 32.184 199.705 32.184C201.472 32.184 202.781 32.548 203.633 33.2768C204.484 34.0056 204.91 35.174 204.91 36.7824V46.1795H203.247L203.247 46.1798ZM198.177 44.7105C199.574 44.7105 200.671 44.3545 201.469 43.6428C202.266 42.9312 202.666 41.9341 202.666 40.652V39.4084L200.42 39.4957C198.636 39.5555 197.35 39.8121 196.561 40.2697C195.772 40.726 195.378 41.436 195.378 42.3992C195.378 43.1527 195.623 43.7268 196.115 44.1196C196.607 44.5137 197.293 44.7105 198.177 44.7105ZM206.213 32.4105H208.618L211.863 40.2629C212.575 42.0557 213.017 43.3495 213.189 44.1455H213.297C213.414 43.7176 213.66 42.9876 214.033 41.9521C214.407 40.9174 215.631 37.7377 217.704 32.4105H220.111L213.743 48.09C213.112 49.6395 212.375 50.7389 211.532 51.3892C210.69 52.0377 209.655 52.3616 208.43 52.3616C207.745 52.3616 207.069 52.2906 206.401 52.1485V50.4778C206.897 50.5781 207.452 50.6286 208.065 50.6286C209.606 50.6286 210.705 49.8246 211.364 48.2162L212.188 46.2567L206.213 32.4105ZM137.425 33.6901C138.137 34.2379 139.625 35.3887 139.625 37.5789C139.625 39.7089 138.323 40.7189 137.021 41.6679C136.618 42.0419 136.153 42.4464 136.153 43.0808C136.153 43.713 136.618 44.0591 136.96 44.3186L138.076 45.1234C139.439 46.1894 140.678 47.1694 140.678 49.1572C140.678 51.8643 137.857 54.5994 132.528 54.5994C128.033 54.5994 125.865 52.6127 125.865 50.4803C125.865 49.4439 126.42 47.9759 128.251 46.9667C130.172 45.8722 132.777 45.7297 134.171 45.6412C133.735 45.1234 133.241 44.576 133.241 43.6846C133.241 43.1957 133.396 42.9074 133.55 42.5601C133.208 42.5894 132.868 42.6182 132.558 42.6182C129.274 42.6182 127.414 40.3428 127.414 38.0975C127.414 36.7724 128.066 35.3027 129.397 34.2383C131.164 32.8848 133.271 32.6537 134.946 32.6537H141.329L139.345 33.6905H137.425L137.425 33.6901ZM135.224 46.4782C134.976 46.4481 134.82 46.4481 134.512 46.4481C134.233 46.4481 132.557 46.507 131.257 46.9111C130.575 47.1397 128.591 47.8309 128.591 49.8769C128.591 51.9208 130.731 53.3917 134.047 53.3917C137.021 53.3917 138.603 52.0641 138.603 50.2801C138.603 48.8083 137.58 48.034 135.224 46.4782ZM136.123 41.0051C136.835 40.342 136.896 39.4214 136.896 38.9023C136.896 36.8292 135.564 33.6035 132.992 33.6035C132.186 33.6035 131.319 33.9776 130.823 34.5542C130.297 35.1589 130.14 35.9358 130.14 36.6855C130.14 38.6148 131.349 41.8121 134.015 41.8121C134.79 41.8121 135.625 41.4665 136.123 41.0051ZM117.914 46.0173C112.995 46.0173 110.365 42.4515 110.365 39.2304C110.365 35.4631 113.675 32.2442 118.38 32.2442C122.926 32.2442 125.773 35.5496 125.773 39.0298C125.773 42.4214 122.959 46.0173 117.914 46.0173ZM121.781 43.6884C122.525 42.7674 122.711 41.6178 122.711 40.4954C122.711 37.9642 121.411 33.1343 117.574 33.1343C116.553 33.1343 115.532 33.5087 114.79 34.1138C113.583 35.1188 113.365 36.3846 113.365 37.6224C113.365 40.4669 114.882 45.1527 118.627 45.1527C119.833 45.1527 121.071 44.6073 121.781 43.6884ZM101.143 46.0173C96.2233 46.0173 93.5927 42.4515 93.5927 39.2304C93.5927 35.4631 96.9041 32.2442 101.608 32.2442C106.155 32.2442 109.002 35.5496 109.002 39.0298C109.002 42.4214 106.187 46.0173 101.143 46.0173ZM105.011 43.6884C105.754 42.7674 105.94 41.6178 105.94 40.4954C105.94 37.9642 104.639 33.1343 100.802 33.1343C99.782 33.1343 98.7604 33.5087 98.0184 34.1138C96.8115 35.1188 96.5952 36.3846 96.5952 37.6224C96.5952 40.4669 98.1106 45.1527 101.856 45.1527C103.063 45.1527 104.3 44.6073 105.011 43.6884ZM91.2292 45.5664L86.7801 46.5204C84.9751 46.7812 83.3581 47.0106 81.648 47.0106C73.061 47.0106 69.7959 41.1418 69.7959 36.5451C69.7959 30.9375 74.4303 25.7352 82.3639 25.7352C84.0443 25.7352 85.6605 25.9658 87.1223 26.3419C89.4553 26.9492 90.544 27.7001 91.2288 28.1343L88.6458 30.418L87.5576 30.6483L88.3351 29.4915C87.2779 28.5384 85.3475 26.7753 81.6781 26.7753C76.7627 26.7753 73.0601 30.2458 73.0601 35.3043C73.0601 40.7377 77.2916 45.8547 84.0717 45.8547C86.0647 45.8547 87.0891 45.4795 88.023 45.1318V40.4786L83.3266 40.7097L85.8142 39.4653H92.4096L91.6016 40.1878C91.3822 40.3621 91.352 40.4206 91.29 40.6496C91.2576 40.9103 91.2284 41.7494 91.2284 42.0382V45.5664H91.2292V45.5664Z" fill="#F9F9F9"/>
<path d="M147.257 44.7339C146.23 44.647 146.015 44.4744 146.015 43.3457V26.9837C146.021 26.9215 146.025 26.8575 146.031 26.7973C146.157 25.786 146.468 25.6126 147.433 25.0916H142.983L140.649 26.1325H143.028V26.1455L143.026 26.135V43.9825C143.026 44.5596 142.903 44.6474 142.187 45.5137H147.694L148.845 44.8793C148.316 44.8195 147.787 44.7915 147.257 44.7339ZM159.915 44.9997C159.577 45.1722 159.237 45.3741 158.898 45.5166C157.877 45.947 156.827 46.0623 155.898 46.0623C154.912 46.0623 153.366 46.003 151.789 44.942C149.597 43.5053 148.64 41.0365 148.64 38.8839C148.64 34.4347 152.532 32.2529 155.714 32.2529C156.826 32.2529 157.971 32.5107 158.898 33.0573C160.441 34.003 160.842 35.2374 161.057 35.8981L153.799 38.6265L151.42 38.7986C152.191 42.4447 154.848 44.5676 157.784 44.5676C159.359 44.5676 160.503 44.0519 161.553 43.5646L159.915 44.9997ZM157.012 36.443C157.598 36.2428 157.907 36.0698 157.907 35.6683C157.907 34.5207 156.517 33.1994 154.848 33.1994C153.611 33.1994 151.295 34.0899 151.295 37.1898C151.295 37.6779 151.357 38.1944 151.389 38.713L157.012 36.443ZM162.897 32.4493V34.3436H162.649V32.4493H161.975V32.2528H163.571V32.4493H162.897ZM165.676 34.3436V32.4317H165.665L165.037 34.3436H164.843L164.21 32.4317H164.202V34.3436H163.977V32.2529H164.363L164.935 33.9428H164.943L165.508 32.2529H165.899V34.3436H165.676Z" fill="#F9F9F9"/>
<path d="M75.9741 20.1062H74.4281C74.4281 19.9086 74.2815 19.349 73.9883 18.4272H71.7566C71.454 19.334 71.3024 19.8935 71.3024 20.1062H69.8486C69.8486 19.9896 70.2246 19.0318 70.9764 17.2333C71.7282 15.4347 72.1042 14.4438 72.1042 14.2617H73.9303C73.9303 14.4322 74.2707 15.4083 74.952 17.1906C75.6333 18.9729 75.9741 19.9445 75.9741 20.1062ZM73.7423 17.5697C73.1915 16.0255 72.9163 15.1906 72.9163 15.0648H72.839C72.839 15.1814 72.5539 16.0163 71.9841 17.5697H73.7423ZM82.203 20.1062H81.01C81.01 19.9834 80.5671 19.3356 79.6817 18.1626C78.7545 16.9265 78.2261 16.0816 78.0975 15.6265H78.0202C78.1007 16.2817 78.1412 16.8743 78.1412 17.4042C78.1412 18.1434 78.1637 19.0444 78.2086 20.1067H77.0201C77.0682 19.179 77.0925 18.1602 77.0925 17.0498C77.0925 15.9575 77.0682 15.0281 77.0201 14.2621H78.4546C78.4546 14.4209 78.8521 15.054 79.6475 16.161C80.4943 17.3369 80.9808 18.1347 81.1063 18.5538H81.1787C81.1014 17.8864 81.0627 17.288 81.0627 16.7582C81.0627 15.9475 81.0402 15.115 80.9953 14.2621H82.2031C82.1576 15.0043 82.1356 15.9337 82.1356 17.0498C82.1351 18.1743 82.1576 19.1931 82.203 20.1062ZM89.204 16.9817C89.204 17.8317 88.9109 18.5739 88.3249 19.2082C87.7385 19.843 86.9174 20.1598 85.8611 20.1598C85.3845 20.1598 84.7275 20.1417 83.8902 20.1058C83.932 19.202 83.9532 18.1827 83.9532 17.049C83.9532 15.96 83.932 15.0306 83.8902 14.2613H84.7356C84.8741 14.2613 85.08 14.2567 85.3539 14.2479C85.6273 14.2391 85.8063 14.2345 85.8899 14.2345C87.0523 14.2345 87.895 14.504 88.4189 15.0427C88.9423 15.5814 89.204 16.2274 89.204 16.9817ZM87.8855 17.1747C87.8855 16.6001 87.7052 16.1162 87.3446 15.7221C86.9839 15.3289 86.4331 15.1321 85.6925 15.1321C85.554 15.1321 85.3642 15.1455 85.1223 15.1727C85.1542 15.7715 85.1704 16.3966 85.1704 17.049C85.1704 17.7644 85.1866 18.4735 85.2185 19.1768C85.4251 19.2155 85.6354 19.2351 85.8462 19.2354C86.5387 19.2354 87.0513 19.0352 87.3846 18.6357C87.7178 18.2362 87.8855 17.7493 87.8855 17.1747ZM95.66 20.1062H94.23C93.8563 19.0469 93.5699 18.3929 93.3703 18.1447C93.1706 17.896 92.8487 17.7719 92.4044 17.7719C92.2173 17.7719 92.0388 17.7736 91.8684 17.7765C91.8684 18.5459 91.8827 19.3223 91.912 20.1062H90.5693C90.611 19.2023 90.6322 18.1831 90.6322 17.0494C90.6322 15.9604 90.6111 15.031 90.5693 14.2617H91.4047C91.5014 14.2617 91.7033 14.2571 92.0109 14.2483C92.3185 14.2395 92.6027 14.2349 92.8635 14.2349C94.3416 14.2349 95.0809 14.7046 95.0809 15.6445C95.0809 16.3895 94.6591 16.9086 93.8155 17.2023V17.2696C94.1406 17.3532 94.4257 17.5893 94.6703 17.9763C94.9144 18.3636 95.2445 19.0736 95.66 20.1062ZM93.8487 15.9762C93.8487 15.3807 93.4364 15.0828 92.6121 15.0828C92.3095 15.0828 92.0419 15.1037 91.8103 15.1455C91.8459 15.6094 91.8634 16.214 91.8634 16.9591C92.0406 16.9654 92.1903 16.9679 92.3126 16.9679C93.3365 16.9683 93.8487 16.6378 93.8487 15.9762ZM102.584 17.0761C102.584 17.9946 102.281 18.7564 101.676 19.3611C101.07 19.9654 100.321 20.2679 99.4296 20.2679C98.5793 20.2679 97.8675 19.9904 97.2946 19.4351C96.7212 18.8801 96.4348 18.1743 96.4348 17.3189C96.4348 16.4004 96.7374 15.6386 97.3431 15.0339C97.9484 14.4296 98.6971 14.1271 99.5892 14.1271C100.44 14.1271 101.151 14.4037 101.724 14.9574C102.298 15.5111 102.584 16.217 102.584 17.0761ZM101.251 17.2061C101.251 16.5805 101.079 16.0732 100.735 15.6842C100.39 15.2951 99.9647 15.1008 99.4593 15.1008C98.9889 15.1008 98.5896 15.2968 98.2614 15.6888C97.9331 16.0807 97.7681 16.576 97.7681 17.1748C97.7681 17.797 97.9412 18.3035 98.2874 18.6942C98.6337 19.0849 99.0577 19.2801 99.5605 19.2801C100.03 19.2801 100.43 19.0833 100.758 18.6896C101.087 18.2964 101.251 17.8015 101.251 17.2061ZM105.315 20.1062H103.948C103.99 19.1785 104.011 18.1597 104.011 17.0494C104.011 15.957 103.99 15.0277 103.948 14.2617H105.315C105.274 15.016 105.252 15.9449 105.252 17.0494C105.252 18.1773 105.274 19.1965 105.315 20.1062ZM112.317 16.9817C112.317 17.8317 112.024 18.5739 111.438 19.2082C110.851 19.843 110.03 20.1598 108.974 20.1598C108.497 20.1598 107.84 20.1417 107.003 20.1058C107.045 19.202 107.066 18.1827 107.066 17.049C107.066 15.96 107.045 15.0306 107.003 14.2613H107.848C107.987 14.2613 108.193 14.2567 108.467 14.2479C108.74 14.2391 108.919 14.2345 109.003 14.2345C110.165 14.2345 111.008 14.504 111.532 15.0427C112.055 15.5814 112.317 16.2274 112.317 16.9817ZM110.998 17.1747C110.998 16.6001 110.818 16.1162 110.457 15.7221C110.097 15.3289 109.546 15.1321 108.805 15.1321C108.667 15.1321 108.477 15.1455 108.235 15.1727C108.267 15.7715 108.283 16.3966 108.283 17.049C108.283 17.7644 108.299 18.4735 108.331 19.1768C108.538 19.2155 108.748 19.2351 108.959 19.2354C109.652 19.2354 110.164 19.0352 110.497 18.6357C110.831 18.2362 110.998 17.7493 110.998 17.1747ZM121.605 20.1062H120.059C120.059 19.9086 119.913 19.349 119.619 18.4272H117.387C117.085 19.334 116.933 19.8935 116.933 20.1062H115.48C115.48 19.9896 115.856 19.0318 116.608 17.2333C117.36 15.4347 117.735 14.4438 117.735 14.2617H119.562C119.562 14.4322 119.902 15.4083 120.583 17.1906C121.264 18.9729 121.605 19.9445 121.605 20.1062ZM119.374 17.5697C118.823 16.0255 118.547 15.1906 118.547 15.0648H118.47C118.47 15.1814 118.185 16.0163 117.615 17.5697H119.374ZM127.24 15.792C127.24 16.5074 126.954 17.0356 126.382 17.3766C125.811 17.7176 125.11 17.8885 124.279 17.8885C124.127 17.8885 124.02 17.8855 123.955 17.8797C123.955 18.4426 123.972 19.1844 124.008 20.1062H122.65C122.692 19.2416 122.713 18.2224 122.713 17.0494C122.713 15.9721 122.692 15.0427 122.65 14.2617H123.491C123.61 14.2617 123.838 14.2571 124.177 14.2483C124.515 14.2395 124.807 14.2349 125.056 14.2349C125.667 14.2349 126.184 14.3636 126.606 14.621C127.028 14.8785 127.24 15.2684 127.24 15.792ZM125.994 16.0389C125.994 15.3987 125.536 15.0782 124.622 15.0782C124.393 15.0782 124.151 15.1007 123.897 15.1455C123.933 15.7113 123.95 16.3515 123.95 17.0669C124.031 17.0732 124.124 17.0757 124.231 17.0757C125.406 17.0761 125.994 16.7305 125.994 16.0389ZM133.033 15.792C133.033 16.5074 132.747 17.0356 132.176 17.3766C131.605 17.7176 130.903 17.8885 130.072 17.8885C129.921 17.8885 129.813 17.8855 129.749 17.8797C129.749 18.4426 129.766 19.1844 129.802 20.1062H128.444C128.486 19.2416 128.507 18.2224 128.507 17.0494C128.507 15.9721 128.486 15.0427 128.444 14.2617H129.284C129.404 14.2617 129.632 14.2571 129.97 14.2483C130.308 14.2395 130.601 14.2349 130.849 14.2349C131.461 14.2349 131.978 14.3636 132.4 14.621C132.822 14.8785 133.033 15.2684 133.033 15.792ZM131.787 16.0389C131.787 15.3987 131.33 15.0782 130.415 15.0782C130.187 15.0782 129.945 15.1007 129.691 15.1455C129.727 15.7113 129.744 16.3515 129.744 17.0669C129.825 17.0732 129.918 17.0757 130.024 17.0757C131.2 17.0761 131.787 16.7305 131.787 16.0389ZM142.506 17.0761C142.506 17.9946 142.203 18.7564 141.597 19.3611C140.992 19.9658 140.243 20.2679 139.351 20.2679C138.501 20.2679 137.789 19.9904 137.216 19.4351C136.643 18.8801 136.357 18.1743 136.357 17.3189C136.357 16.4004 136.659 15.6386 137.265 15.0339C137.871 14.4292 138.619 14.1271 139.511 14.1271C140.361 14.1271 141.073 14.4037 141.646 14.9574C142.219 15.5111 142.506 16.217 142.506 17.0761ZM141.173 17.2061C141.173 16.5805 141 16.0732 140.656 15.6842C140.311 15.2951 139.886 15.1008 139.381 15.1008C138.91 15.1008 138.511 15.2968 138.183 15.6888C137.854 16.0807 137.69 16.576 137.69 17.1748C137.69 17.797 137.863 18.3035 138.209 18.6942C138.555 19.0849 138.979 19.2801 139.482 19.2801C139.952 19.2801 140.351 19.0833 140.68 18.6896C141.008 18.2964 141.173 17.8015 141.173 17.2061ZM149.053 20.1062H147.86C147.86 19.9834 147.418 19.3356 146.532 18.1626C145.605 16.9265 145.076 16.0816 144.948 15.6265H144.87C144.951 16.2817 144.991 16.8743 144.991 17.4042C144.991 18.1434 145.014 19.0444 145.059 20.1067H143.87C143.918 19.179 143.943 18.1602 143.943 17.0498C143.943 15.9575 143.918 15.0281 143.87 14.2621H145.305C145.305 14.4209 145.703 15.054 146.498 16.161C147.345 17.3369 147.831 18.1347 147.956 18.5538H148.029C147.951 17.8864 147.913 17.288 147.913 16.7582C147.913 15.9475 147.89 15.115 147.845 14.2621H149.053C149.008 15.0043 148.986 15.9337 148.986 17.0498C148.986 18.1743 149.008 19.1931 149.053 20.1062Z" fill="#F9F9FA"/>
</g>
<defs>
<linearGradient id="paint0_linear_162_39154" x1="30.0968" y1="13.5018" x2="30.0968" y2="60.8496" gradientUnits="userSpaceOnUse">
<stop stop-color="#257CB0"/>
<stop offset="0.286" stop-color="#4A93B5"/>
<stop offset="0.767" stop-color="#78BCBB"/>
<stop offset="1" stop-color="#89CFBD"/>
</linearGradient>
<linearGradient id="paint1_linear_162_39154" x1="17.2514" y1="25.2524" x2="49.8434" y2="25.2524" gradientUnits="userSpaceOnUse">
<stop stop-color="#52C1AD"/>
<stop offset="1" stop-color="#DEE89A"/>
</linearGradient>
<linearGradient id="paint2_linear_162_39154" x1="33.5467" y1="37.1757" x2="33.5467" y2="61.0216" gradientUnits="userSpaceOnUse">
<stop stop-color="#EC413D"/>
<stop offset="0.167" stop-color="#DA4452"/>
<stop offset="0.575" stop-color="#B0487A"/>
<stop offset="0.862" stop-color="#954A92"/>
<stop offset="1" stop-color="#8A4A9D"/>
</linearGradient>
<linearGradient id="paint3_linear_162_39154" x1="52.3195" y1="30.8168" x2="52.3195" y2="43.5335" gradientUnits="userSpaceOnUse">
<stop stop-color="#F58879"/>
<stop offset="0.119" stop-color="#F69079"/>
<stop offset="0.713" stop-color="#FCB877"/>
<stop offset="1" stop-color="#FEC874"/>
</linearGradient>
<clipPath id="clip0_162_39154">
<rect width="230" height="70" fill="white"/>
</clipPath>
</defs>
</svg>
