<svg width="40" height="40" viewBox="0 0 40 40" fill="none" xmlns="http://www.w3.org/2000/svg">
<path d="M0 20C0 8.9543 8.9543 0 20 0C31.0457 0 40 8.9543 40 20C40 31.0457 31.0457 40 20 40C8.9543 40 0 31.0457 0 20Z" fill="#E6E6E6"/>
<path d="M19.9996 16.232C17.9185 16.232 16.2314 17.919 16.2314 20.0001C16.2314 22.0812 17.9185 23.7682 19.9996 23.7682C22.0806 23.7682 23.7677 22.0812 23.7677 20.0001C23.7677 17.919 22.0806 16.232 19.9996 16.232Z" fill="#BC264A"/>
<path fill-rule="evenodd" clip-rule="evenodd" d="M15.4779 8.6958C11.732 8.6958 8.69531 11.7325 8.69531 15.4784V24.5219C8.69531 28.2678 11.732 31.3045 15.4779 31.3045H24.5214C28.2674 31.3045 31.304 28.2678 31.304 24.5219V15.4784C31.304 11.7325 28.2674 8.6958 24.5214 8.6958H15.4779ZM14.7243 20.0001C14.7243 17.0866 17.0862 14.7248 19.9997 14.7248C22.9132 14.7248 25.275 17.0866 25.275 20.0001C25.275 22.9137 22.9132 25.2755 19.9997 25.2755C17.0862 25.2755 14.7243 22.9137 14.7243 20.0001ZM25.275 14.7248H26.7823V13.2175H25.275V14.7248Z" fill="#BC264A"/>
</svg>
