<svg width="62" height="62" viewBox="0 0 62 62" fill="none" xmlns="http://www.w3.org/2000/svg">
<g filter="url(#filter0_d_162_39359)">
<circle cx="20" cy="20" r="20" transform="matrix(-1 0 0 1 50 10)" fill="white"/>
</g>
<path d="M26.8101 30.4285L34.3393 37.9203C34.5097 38.0899 34.6055 38.32 34.6055 38.5599C34.6055 38.7998 34.5097 39.0298 34.3393 39.1994C34.1688 39.3691 33.9377 39.4644 33.6967 39.4644C33.4556 39.4644 33.2245 39.3691 33.054 39.1994L24.8838 31.0681C24.7993 30.9842 24.7322 30.8845 24.6865 30.7747C24.6407 30.665 24.6172 30.5473 24.6172 30.4285C24.6172 30.3097 24.6407 30.1921 24.6865 30.0823C24.7322 29.9726 24.7993 29.8729 24.8838 29.7889L33.0532 21.6599C33.2237 21.4903 33.4548 21.395 33.6959 21.395C33.9369 21.395 34.1681 21.4903 34.3385 21.6599C34.5089 21.8296 34.6047 22.0596 34.6047 22.2995C34.6047 22.5394 34.5089 22.7695 34.3385 22.9391L26.8101 30.4285Z" fill="#ED145A"/>
<path d="M33.6958 21C33.9537 20.9998 34.2059 21.0758 34.4204 21.2183C34.6349 21.3609 34.8021 21.5635 34.9008 21.8007C34.9996 22.0378 35.0254 22.2988 34.975 22.5505C34.9247 22.8023 34.8004 23.0335 34.6179 23.2149L27.3682 30.4286L34.6179 37.6422C34.7389 37.7627 34.835 37.9057 34.9005 38.0631C34.966 38.2205 34.9997 38.3892 34.9997 38.5595C34.9997 38.7299 34.966 38.8986 34.9005 39.056C34.835 39.2134 34.739 39.3564 34.6179 39.4769C34.4969 39.5973 34.3532 39.6929 34.195 39.7581C34.0369 39.8233 33.8674 39.8568 33.6962 39.8568C33.525 39.8568 33.3555 39.8233 33.1974 39.7581C33.0392 39.6929 32.8955 39.5973 32.7745 39.4769L24.6042 31.3455C24.483 31.2251 24.3868 31.082 24.3211 30.9246C24.2555 30.7671 24.2217 30.5983 24.2217 30.4278C24.2217 30.2573 24.2555 30.0885 24.3211 29.931C24.3868 29.7735 24.483 29.6305 24.6042 29.5101L32.7737 21.3795C32.8945 21.2587 33.0383 21.1629 33.1965 21.0978C33.3548 21.0326 33.5245 20.9994 33.6958 21ZM33.6958 39.0714C33.7976 39.0716 33.8972 39.0418 33.9819 38.9856C34.0666 38.9294 34.1326 38.8494 34.1716 38.7558C34.2106 38.6622 34.2208 38.5592 34.2009 38.4599C34.181 38.3605 34.1318 38.2693 34.0598 38.1977L26.2511 30.4286L34.0598 22.6594C34.1562 22.5635 34.2103 22.4333 34.2103 22.2976C34.2103 22.1619 34.1562 22.0317 34.0598 21.9358C33.9633 21.8398 33.8326 21.7859 33.6962 21.7859C33.5598 21.7859 33.4291 21.8398 33.3326 21.9358L25.1624 30.0671C25.1144 30.1146 25.0763 30.171 25.0504 30.2332C25.0245 30.2954 25.0113 30.362 25.0116 30.4294C25.012 30.5649 25.0662 30.6948 25.1624 30.7908L33.3326 38.9221C33.3803 38.9697 33.4369 39.0073 33.4992 39.0329C33.5616 39.0585 33.6284 39.0716 33.6958 39.0714Z" fill="#ED145A"/>
<path d="M33.6958 21C33.9537 20.9998 34.2059 21.0758 34.4204 21.2183C34.6349 21.3609 34.8021 21.5635 34.9008 21.8007C34.9996 22.0378 35.0254 22.2988 34.975 22.5505C34.9247 22.8023 34.8004 23.0335 34.6179 23.2149L27.3682 30.4286L34.6179 37.6422C34.7389 37.7627 34.835 37.9057 34.9005 38.0631C34.966 38.2205 34.9997 38.3892 34.9997 38.5595C34.9997 38.7299 34.966 38.8986 34.9005 39.056C34.835 39.2134 34.739 39.3564 34.6179 39.4769C34.4969 39.5973 34.3532 39.6929 34.195 39.7581C34.0369 39.8233 33.8674 39.8568 33.6962 39.8568C33.525 39.8568 33.3555 39.8233 33.1974 39.7581C33.0392 39.6929 32.8955 39.5973 32.7745 39.4769L24.6042 31.3455C24.483 31.2251 24.3868 31.082 24.3211 30.9246C24.2555 30.7671 24.2217 30.5983 24.2217 30.4278C24.2217 30.2573 24.2555 30.0885 24.3211 29.931C24.3868 29.7735 24.483 29.6305 24.6042 29.5101L32.7737 21.3795C32.8945 21.2587 33.0383 21.1629 33.1965 21.0978C33.3548 21.0326 33.5245 20.9994 33.6958 21ZM33.6958 39.0714C33.7976 39.0716 33.8972 39.0418 33.9819 38.9856C34.0666 38.9294 34.1326 38.8494 34.1716 38.7558C34.2106 38.6622 34.2208 38.5592 34.2009 38.4599C34.181 38.3605 34.1318 38.2693 34.0598 38.1977L26.2511 30.4286L34.0598 22.6594C34.1562 22.5635 34.2103 22.4333 34.2103 22.2976C34.2103 22.1619 34.1562 22.0317 34.0598 21.9358C33.9633 21.8398 33.8326 21.7859 33.6962 21.7859C33.5598 21.7859 33.4291 21.8398 33.3326 21.9358L25.1624 30.0671C25.1144 30.1146 25.0763 30.171 25.0504 30.2332C25.0245 30.2954 25.0113 30.362 25.0116 30.4294C25.012 30.5649 25.0662 30.6948 25.1624 30.7908L33.3326 38.9221C33.3803 38.9697 33.4369 39.0073 33.4992 39.0329C33.5616 39.0585 33.6284 39.0716 33.6958 39.0714Z" fill="#ED145A"/>
<defs>
<filter id="filter0_d_162_39359" x="0" y="0" width="62" height="62" filterUnits="userSpaceOnUse" color-interpolation-filters="sRGB">
<feFlood flood-opacity="0" result="BackgroundImageFix"/>
<feColorMatrix in="SourceAlpha" type="matrix" values="0 0 0 0 0 0 0 0 0 0 0 0 0 0 0 0 0 0 127 0" result="hardAlpha"/>
<feOffset dx="1" dy="1"/>
<feGaussianBlur stdDeviation="5.5"/>
<feComposite in2="hardAlpha" operator="out"/>
<feColorMatrix type="matrix" values="0 0 0 0 0 0 0 0 0 0 0 0 0 0 0 0 0 0 0.23 0"/>
<feBlend mode="normal" in2="BackgroundImageFix" result="effect1_dropShadow_162_39359"/>
<feBlend mode="normal" in="SourceGraphic" in2="effect1_dropShadow_162_39359" result="shape"/>
</filter>
</defs>
</svg>
