<svg width="38" height="38" viewBox="0 0 38 38" fill="none" xmlns="http://www.w3.org/2000/svg">
<circle cx="19" cy="19" r="18.25" transform="matrix(-1 0 0 1 38 0)" fill="white" stroke="#DCDCDC" stroke-width="1.5"/>
<path d="M15.4818 19.4999L21.8703 25.8566C22.0149 26.0006 22.0961 26.1958 22.0961 26.3993C22.0961 26.6029 22.0149 26.7981 21.8703 26.942C21.7257 27.0859 21.5295 27.1668 21.325 27.1668C21.1205 27.1668 20.9244 27.0859 20.7797 26.942L13.8473 20.0425C13.7756 19.9713 13.7187 19.8867 13.6799 19.7936C13.6411 19.7005 13.6211 19.6007 13.6211 19.4999C13.6211 19.3991 13.6411 19.2992 13.6799 19.2061C13.7187 19.113 13.7756 19.0284 13.8473 18.9572L20.7791 12.0597C20.9237 11.9158 21.1198 11.835 21.3243 11.835C21.5289 11.835 21.725 11.9158 21.8696 12.0597C22.0142 12.2037 22.0955 12.3989 22.0955 12.6024C22.0955 12.806 22.0142 13.0012 21.8696 13.1451L15.4818 19.4999Z" fill="#9A9A9A"/>
<path d="M21.3249 11.5C21.5438 11.4999 21.7577 11.5643 21.9397 11.6853C22.1218 11.8062 22.2636 11.9782 22.3474 12.1794C22.4312 12.3806 22.4531 12.602 22.4103 12.8156C22.3676 13.0292 22.2621 13.2254 22.1073 13.3794L15.9559 19.5001L22.1073 25.6209C22.21 25.7231 22.2915 25.8445 22.3471 25.978C22.4027 26.1116 22.4313 26.2547 22.4313 26.3993C22.4313 26.5438 22.4027 26.6869 22.3471 26.8205C22.2915 26.954 22.21 27.0754 22.1073 27.1776C22.0046 27.2798 21.8827 27.3609 21.7485 27.4162C21.6143 27.4715 21.4705 27.5 21.3253 27.5C21.18 27.5 21.0362 27.4715 20.902 27.4162C20.7678 27.3609 20.6459 27.2798 20.5432 27.1776L13.6107 20.2781C13.5078 20.176 13.4262 20.0546 13.3705 19.921C13.3148 19.7874 13.2861 19.6441 13.2861 19.4995C13.2861 19.3548 13.3148 19.2116 13.3705 19.078C13.4262 18.9443 13.5078 18.823 13.6107 18.7208L20.5425 11.822C20.645 11.7195 20.767 11.6382 20.9013 11.583C21.0356 11.5277 21.1796 11.4995 21.3249 11.5ZM21.3249 26.8336C21.4113 26.8338 21.4958 26.8084 21.5677 26.7607C21.6396 26.7131 21.6956 26.6452 21.7287 26.5658C21.7617 26.4864 21.7704 26.399 21.7535 26.3147C21.7366 26.2304 21.6949 26.153 21.6337 26.0923L15.0081 19.5001L21.6337 12.908C21.7155 12.8266 21.7615 12.7162 21.7615 12.601C21.7615 12.4859 21.7155 12.3754 21.6337 12.294C21.5519 12.2126 21.441 12.1668 21.3253 12.1668C21.2096 12.1668 21.0986 12.2126 21.0168 12.294L14.0843 19.1935C14.0436 19.2337 14.0113 19.2816 13.9893 19.3343C13.9674 19.3871 13.9562 19.4437 13.9564 19.5008C13.9567 19.6158 14.0027 19.7261 14.0843 19.8075L21.0168 26.7069C21.0572 26.7472 21.1052 26.7792 21.1581 26.8009C21.211 26.8227 21.2677 26.8338 21.3249 26.8336Z" fill="#9A9A9A"/>
</svg>
