<svg width="62" height="62" viewBox="0 0 62 62" fill="none" xmlns="http://www.w3.org/2000/svg">
<g filter="url(#filter0_d_2382_25049)">
<circle cx="30" cy="30" r="20" fill="white"/>
</g>
<path d="M33.1899 30.4285L25.6607 37.9203C25.4903 38.0899 25.3945 38.32 25.3945 38.5599C25.3945 38.7998 25.4903 39.0298 25.6607 39.1994C25.8312 39.3691 26.0623 39.4644 26.3033 39.4644C26.5444 39.4644 26.7755 39.3691 26.946 39.1994L35.1162 31.0681C35.2007 30.9842 35.2678 30.8845 35.3135 30.7747C35.3593 30.665 35.3828 30.5473 35.3828 30.4285C35.3828 30.3097 35.3593 30.1921 35.3135 30.0823C35.2678 29.9726 35.2007 29.8729 35.1162 29.7889L26.9468 21.6599C26.7763 21.4903 26.5452 21.395 26.3041 21.395C26.0631 21.395 25.8319 21.4903 25.6615 21.6599C25.4911 21.8296 25.3953 22.0596 25.3953 22.2995C25.3953 22.5394 25.4911 22.7695 25.6615 22.9391L33.1899 30.4285Z" fill="#ED145A"/>
<path d="M26.3042 21C26.0463 20.9998 25.7941 21.0758 25.5796 21.2183C25.3651 21.3609 25.1979 21.5635 25.0992 21.8007C25.0004 22.0378 24.9746 22.2988 25.025 22.5505C25.0753 22.8023 25.1996 23.0335 25.3821 23.2149L32.6318 30.4286L25.3821 37.6422C25.2611 37.7627 25.165 37.9057 25.0995 38.0631C25.034 38.2205 25.0003 38.3892 25.0003 38.5595C25.0003 38.7299 25.034 38.8986 25.0995 39.056C25.165 39.2134 25.261 39.3564 25.3821 39.4769C25.5031 39.5973 25.6468 39.6929 25.805 39.7581C25.9631 39.8233 26.1326 39.8568 26.3038 39.8568C26.475 39.8568 26.6445 39.8233 26.8026 39.7581C26.9608 39.6929 27.1045 39.5973 27.2255 39.4769L35.3958 31.3455C35.517 31.2251 35.6132 31.082 35.6789 30.9246C35.7445 30.7671 35.7783 30.5983 35.7783 30.4278C35.7783 30.2573 35.7445 30.0885 35.6789 29.931C35.6132 29.7735 35.517 29.6305 35.3958 29.5101L27.2263 21.3795C27.1055 21.2587 26.9617 21.1629 26.8035 21.0978C26.6452 21.0326 26.4755 20.9994 26.3042 21ZM26.3042 39.0714C26.2024 39.0716 26.1028 39.0418 26.0181 38.9856C25.9334 38.9294 25.8674 38.8494 25.8284 38.7558C25.7894 38.6622 25.7792 38.5592 25.7991 38.4599C25.819 38.3605 25.8682 38.2693 25.9402 38.1977L33.7489 30.4286L25.9402 22.6594C25.8438 22.5635 25.7897 22.4333 25.7897 22.2976C25.7897 22.1619 25.8438 22.0317 25.9402 21.9358C26.0367 21.8398 26.1674 21.7859 26.3038 21.7859C26.4402 21.7859 26.5709 21.8398 26.6674 21.9358L34.8376 30.0671C34.8856 30.1146 34.9237 30.171 34.9496 30.2332C34.9755 30.2954 34.9887 30.362 34.9884 30.4294C34.988 30.5649 34.9338 30.6948 34.8376 30.7908L26.6674 38.9221C26.6197 38.9697 26.5631 39.0073 26.5008 39.0329C26.4384 39.0585 26.3716 39.0716 26.3042 39.0714Z" fill="#ED145A"/>
<path d="M26.3042 21C26.0463 20.9998 25.7941 21.0758 25.5796 21.2183C25.3651 21.3609 25.1979 21.5635 25.0992 21.8007C25.0004 22.0378 24.9746 22.2988 25.025 22.5505C25.0753 22.8023 25.1996 23.0335 25.3821 23.2149L32.6318 30.4286L25.3821 37.6422C25.2611 37.7627 25.165 37.9057 25.0995 38.0631C25.034 38.2205 25.0003 38.3892 25.0003 38.5595C25.0003 38.7299 25.034 38.8986 25.0995 39.056C25.165 39.2134 25.261 39.3564 25.3821 39.4769C25.5031 39.5973 25.6468 39.6929 25.805 39.7581C25.9631 39.8233 26.1326 39.8568 26.3038 39.8568C26.475 39.8568 26.6445 39.8233 26.8026 39.7581C26.9608 39.6929 27.1045 39.5973 27.2255 39.4769L35.3958 31.3455C35.517 31.2251 35.6132 31.082 35.6789 30.9246C35.7445 30.7671 35.7783 30.5983 35.7783 30.4278C35.7783 30.2573 35.7445 30.0885 35.6789 29.931C35.6132 29.7735 35.517 29.6305 35.3958 29.5101L27.2263 21.3795C27.1055 21.2587 26.9617 21.1629 26.8035 21.0978C26.6452 21.0326 26.4755 20.9994 26.3042 21ZM26.3042 39.0714C26.2024 39.0716 26.1028 39.0418 26.0181 38.9856C25.9334 38.9294 25.8674 38.8494 25.8284 38.7558C25.7894 38.6622 25.7792 38.5592 25.7991 38.4599C25.819 38.3605 25.8682 38.2693 25.9402 38.1977L33.7489 30.4286L25.9402 22.6594C25.8438 22.5635 25.7897 22.4333 25.7897 22.2976C25.7897 22.1619 25.8438 22.0317 25.9402 21.9358C26.0367 21.8398 26.1674 21.7859 26.3038 21.7859C26.4402 21.7859 26.5709 21.8398 26.6674 21.9358L34.8376 30.0671C34.8856 30.1146 34.9237 30.171 34.9496 30.2332C34.9755 30.2954 34.9887 30.362 34.9884 30.4294C34.988 30.5649 34.9338 30.6948 34.8376 30.7908L26.6674 38.9221C26.6197 38.9697 26.5631 39.0073 26.5008 39.0329C26.4384 39.0585 26.3716 39.0716 26.3042 39.0714Z" fill="#ED145A"/>
<defs>
<filter id="filter0_d_2382_25049" x="0" y="0" width="62" height="62" filterUnits="userSpaceOnUse" color-interpolation-filters="sRGB">
<feFlood flood-opacity="0" result="BackgroundImageFix"/>
<feColorMatrix in="SourceAlpha" type="matrix" values="0 0 0 0 0 0 0 0 0 0 0 0 0 0 0 0 0 0 127 0" result="hardAlpha"/>
<feOffset dx="1" dy="1"/>
<feGaussianBlur stdDeviation="5.5"/>
<feComposite in2="hardAlpha" operator="out"/>
<feColorMatrix type="matrix" values="0 0 0 0 0 0 0 0 0 0 0 0 0 0 0 0 0 0 0.23 0"/>
<feBlend mode="normal" in2="BackgroundImageFix" result="effect1_dropShadow_2382_25049"/>
<feBlend mode="normal" in="SourceGraphic" in2="effect1_dropShadow_2382_25049" result="shape"/>
</filter>
</defs>
</svg>
