<svg width="40" height="40" viewBox="0 0 40 40" fill="none" xmlns="http://www.w3.org/2000/svg">
<path d="M0 20C0 8.9543 8.9543 0 20 0C31.0457 0 40 8.9543 40 20C40 31.0457 31.0457 40 20 40C8.9543 40 0 31.0457 0 20Z" fill="#E6E6E6"/>
<path fill-rule="evenodd" clip-rule="evenodd" d="M31.304 12.7154C30.4611 13.1072 29.5625 13.3659 28.6403 13.4822C29.621 12.8584 30.3449 11.9029 30.6801 10.79C29.7748 11.3548 28.7767 11.7548 27.7319 11.9715C27.3089 11.4909 26.7889 11.1054 26.206 10.8404C25.6232 10.5755 24.9908 10.4372 24.3506 10.4346C23.0894 10.4639 21.8915 10.993 21.0204 11.9055C20.1493 12.818 19.6763 14.0391 19.7054 15.3003C19.7039 15.6728 19.7422 16.0443 19.8197 16.4087C17.9546 16.2991 16.1352 15.7883 14.4857 14.9111C12.8362 14.0339 11.3955 12.811 10.262 11.3259C9.84876 12.0746 9.63287 12.9161 9.63463 13.7713C9.67608 14.5805 9.90734 15.3687 10.3097 16.072C10.7121 16.7753 11.2743 17.3741 11.9509 17.82C11.1899 17.7937 10.1009 17.5743 10.1009 17.2086V17.2737C10.0314 18.3486 10.3401 19.4138 10.9735 20.2849C11.6069 21.1561 12.5251 21.7782 13.569 22.0435C13.1287 22.1554 12.6761 22.2122 12.2217 22.2126C11.9073 22.2125 11.5935 22.1826 11.2847 22.1234C11.5522 23.0698 12.1128 23.907 12.8861 24.5145C13.6594 25.1221 14.6054 25.4688 15.5882 25.5047C13.9616 26.8467 11.9193 27.5819 9.81061 27.5845C9.43785 27.5847 9.06542 27.5626 8.69531 27.5182C10.7939 28.9394 13.2696 29.7003 15.8042 29.7031C24.3414 29.7031 29.0049 22.2926 29.0049 15.8648C29.0049 15.6534 29.0049 15.4408 28.9889 15.2328C29.9039 14.5391 30.6879 13.6878 31.304 12.7189" fill="#BC264A"/>
</svg>
