<svg width="40" height="40" viewBox="0 0 40 40" fill="none" xmlns="http://www.w3.org/2000/svg">
<path d="M0 20C0 8.9543 8.9543 0 20 0C31.0457 0 40 8.9543 40 20C40 31.0457 31.0457 40 20 40C8.9543 40 0 31.0457 0 20Z" fill="#E6E6E6"/>
<path fill-rule="evenodd" clip-rule="evenodd" d="M26.2557 24.2296C25.9833 25.0008 24.9003 25.6387 24.0367 25.8253C23.4454 25.9508 22.6745 26.0501 20.0767 24.9736C17.1591 23.7648 13.1076 19.459 13.1076 16.5936C13.1076 15.1349 13.9487 13.4364 15.4194 13.4364C16.127 13.4364 16.283 13.4502 16.5159 14.0087C16.7883 14.6669 17.453 16.2883 17.5321 16.4545C17.8588 17.1364 17.1998 17.5355 16.7216 18.1292C16.569 18.3079 16.3961 18.5011 16.5894 18.8335C16.7815 19.1592 17.4462 20.2425 18.4229 21.112C19.6845 22.236 20.7075 22.5949 21.0738 22.7475C21.3462 22.8606 21.6718 22.8343 21.8707 22.6217C22.1228 22.3492 22.436 21.897 22.7547 21.4515C22.9797 21.1326 23.2657 21.0928 23.5653 21.2059C23.7676 21.276 26.3394 22.4703 26.4479 22.6614C26.5281 22.8005 26.5282 23.4584 26.2557 24.2296ZM19.6777 8.2666H19.672C13.44 8.2666 8.37109 13.337 8.37109 19.5709C8.37109 22.0428 9.16806 24.3361 10.5234 26.1962L9.11493 30.3967L13.4592 29.0085C15.2464 30.1913 17.3795 30.8753 19.6777 30.8753C25.9098 30.8753 30.9798 25.8049 30.9798 19.5709C30.9798 13.337 25.9098 8.2666 19.6777 8.2666Z" fill="#BC264A"/>
</svg>
