<svg width="38" height="38" viewBox="0 0 38 38" fill="none" xmlns="http://www.w3.org/2000/svg">
<g clip-path="url(#clip0_7842_643)">
<path d="M19 38C29.4934 38 38 29.4934 38 19C38 8.50659 29.4934 0 19 0C8.50659 0 0 8.50659 0 19C0 29.4934 8.50659 38 19 38Z" fill="white"/>
<path d="M18.767 28.6958L18.5255 28.5497C16.3877 27.2325 14.401 25.6847 12.6009 23.934C11.2728 22.6164 10.2659 21.0107 9.65802 19.2414C9.05788 17.4673 9.12817 15.5349 9.85562 13.8091C10.2079 12.9898 10.7321 12.2558 11.3928 11.6568C12.0536 11.0579 12.8354 10.608 13.6852 10.3376C14.5391 10.0628 15.4409 9.96832 16.3332 10.0602C17.2256 10.1521 18.0892 10.4282 18.8692 10.8713L19.1327 11.0275L19.397 10.8713C20.8902 10.0254 22.6576 9.80556 24.3125 10.2599L24.5751 10.3376C25.4257 10.6086 26.2081 11.0593 26.8693 11.6591C27.5304 12.259 28.0549 12.9939 28.4072 13.8142C29.1355 15.5436 29.2058 17.4798 28.6048 19.2575C27.9915 21.0192 26.9868 22.619 25.6662 23.9365C23.8656 25.6844 21.8789 27.2297 19.7415 28.5447L19.5152 28.6857C19.4023 28.7554 19.2725 28.7928 19.1398 28.7938C19.0072 28.7949 18.8768 28.7595 18.7628 28.6916L18.767 28.6958ZM14.126 11.7157C13.4629 11.9281 12.854 12.2821 12.3412 12.753C11.8284 13.2239 11.424 13.8007 11.1561 14.4433C10.5914 15.8295 10.547 17.3732 11.0311 18.7896C11.5702 20.3389 12.4527 21.7462 13.6126 22.9063C15.3344 24.5776 17.2342 26.0552 19.2779 27.3126L19.1361 27.2239L19.5971 26.9334C21.2096 25.8921 22.7275 24.7112 24.1335 23.4045L24.6545 22.9105C25.8132 21.7538 26.6947 20.3495 27.2326 18.8031C27.7167 17.3842 27.6711 15.838 27.1042 14.45C26.8363 13.8061 26.4317 13.228 25.9183 12.7559C25.4049 12.2838 24.7951 11.9288 24.131 11.7157C23.3631 11.4693 22.5474 11.4106 21.7522 11.5446C20.957 11.6786 20.2055 12.0014 19.5608 12.4859C19.4379 12.5777 19.2889 12.6281 19.1355 12.6298C18.982 12.6315 18.832 12.5843 18.7071 12.4951L18.5095 12.3558C17.8756 11.9214 17.1507 11.6378 16.3903 11.5269C15.6299 11.4159 14.8542 11.4805 14.1226 11.7157H14.126Z" fill="#9A9A9A"/>
</g>
<defs>
<clipPath id="clip0_7842_643">
<rect width="38" height="38" fill="white"/>
</clipPath>
</defs>
</svg>
